<?xml version="1.0" encoding="UTF-8" standalone="no"?>
<!-- Creator: CorelDRAW -->

<svg
   xml:space="preserve"
   width="35mm"
   height="30.635601mm"
   version="1.1"
   style="clip-rule:evenodd;fill-rule:evenodd;image-rendering:optimizeQuality;shape-rendering:geometricPrecision;text-rendering:geometricPrecision"
   viewBox="0 0 3500 3063.5601"
   id="svg31"
   sodipodi:docname="MerilLife.svg"
   inkscape:version="1.2.2 (b0a8486541, 2022-12-01)"
   xmlns:inkscape="http://www.inkscape.org/namespaces/inkscape"
   xmlns:sodipodi="http://sodipodi.sourceforge.net/DTD/sodipodi-0.dtd"
   xmlns="http://www.w3.org/2000/svg"
   xmlns:svg="http://www.w3.org/2000/svg"><sodipodi:namedview
   id="namedview33"
   pagecolor="#ffffff"
   bordercolor="#000000"
   borderopacity="0.25"
   inkscape:showpageshadow="2"
   inkscape:pageopacity="0.0"
   inkscape:pagecheckerboard="0"
   inkscape:deskcolor="#d1d1d1"
   inkscape:document-units="mm"
   showgrid="false"
   inkscape:zoom="1.9129816"
   inkscape:cx="24.046232"
   inkscape:cy="55.410882"
   inkscape:window-width="1920"
   inkscape:window-height="998"
   inkscape:window-x="0"
   inkscape:window-y="42"
   inkscape:window-maximized="1"
   inkscape:current-layer="Layer_x0020_1" />
 <defs
   id="defs4">
  <style
   type="text/css"
   id="style2">
   <![CDATA[
    .fil3 {fill:#727271}
    .fil2 {fill:#FEFEFE;fill-rule:nonzero}
    .fil1 {fill:#FBBB2C;fill-rule:nonzero}
    .fil0 {fill:#5291CD;fill-rule:nonzero}
   ]]>
  </style>
 </defs>
 <g
   id="Layer_x0020_1"
   inkscape:label="Layer 1"
   inkscape:groupmode="layer"
   transform="translate(-2245.27,-2472.95)">
  <metadata
   id="CorelCorpID_0Corel-Layer" />
  <g
   id="_2500508584048">
   <g
   id="g25">
    <polygon
   class="fil0"
   points="2245.27,2472.95 5745.27,2472.95 5745.27,4900.37 2245.27,4900.37 "
   id="polygon7" />
    <g
   id="g23">
     <path
   class="fil1"
   d="m 4535.58,3387.06 c 0,39.27 -31.84,71 -71.07,71 -39.22,0 -71,-31.73 -71,-71 0,-39.16 31.78,-71 71,-71 39.23,0 71.07,31.84 71.07,71 z"
   id="path9" />
     <path
   class="fil2"
   d="m 3928.33,3787.63 356.75,0.56 c -2.88,-62.87 -19.94,-112.23 -51.19,-148.19 -31.28,-35.81 -72.77,-53.77 -124.55,-53.77 -52.11,0 -94.54,18.18 -127.14,54.53 -32.73,36.48 -50.69,85.45 -53.87,146.87 z m -1.11,52.93 v 3.31 c 0,69.52 16.8,125.05 50.4,166.26 33.56,41.21 78.5,61.87 134.97,61.87 44.57,0 81.92,-12.07 111.95,-36.15 29.96,-24.13 48.19,-57.01 54.59,-98.88 h 65.88 c -7.11,57.9 -32.12,104.28 -74.97,139 -42.86,34.87 -96.8,52.32 -161.75,52.32 -77.51,0 -138.21,-26.28 -182.12,-78.78 -43.89,-52.5 -65.88,-125.26 -65.88,-218.52 0,-95.03 22.03,-169.02 66.16,-222.29 44.13,-53.26 105.44,-79.82 184,-79.82 76.34,0 135.9,25.51 178.64,76.25 42.58,50.89 64.01,122.13 64.01,213.51 v 21.92 z"
   id="path11" />
     <path
   class="fil2"
   d="m 4425.94,4112.77 v -569.49 h 63.75 v 99.76 c 16.41,-38.33 39.16,-66.82 68.24,-85.77 29.15,-18.83 64.89,-28.42 107.43,-28.42 h 7.48 v 69.08 h -8.59 c -56.79,0 -99.33,16.8 -127.69,50.34 -28.43,33.61 -42.64,83.84 -42.64,150.55 v 313.95 z"
   id="path13" />
     <polygon
   class="fil2"
   points="4791.36,4112.8 4725.92,4112.8 4725.92,3543.31 4791.36,3543.31 "
   id="polygon15" />
     <polygon
   class="fil2"
   points="4973.48,4112.74 4908.04,4112.74 4908.04,3323.79 4973.48,3323.79 "
   id="polygon17" />
     <path
   class="fil2"
   d="m 4829.65,3387.06 c 0,39.27 -31.84,71 -71.02,71 -39.27,0 -71,-31.73 -71,-71 0,-39.16 31.73,-71 71,-71 39.18,0 71.02,31.84 71.02,71 z"
   id="path19" />
     <polygon
   class="fil2"
   points="3126.24,3245.04 3405.54,3951.26 3679.6,3245.04 3788.9,3245.04 3788.9,4112.77 3713.58,4112.77 3713.58,3347.99 3441.73,4112.77 3369.84,4112.77 3093.52,3347.99 3093.52,4112.77 3017.06,4112.77 3017.06,3245.04 "
   id="polygon21" />
    </g>
   </g>
   <path
   class="fil3"
   d="m 2830.54,5529.96 v -336.67 h 43.24 l 111.44,295.77 109.02,-295.77 h 43.47 v 336.67 h -29.97 v -293.52 l -108.16,293.52 h -28.56 l -110.04,-293.52 v 293.52 z m 392.86,-121.2 c 0,32.62 7.18,57.98 21.62,75.93 14.36,18.03 34.65,27 60.71,27 26.3,0 46.67,-8.89 61.03,-26.76 14.29,-17.8 21.46,-43.24 21.46,-76.17 0,-32.86 -7.17,-58.3 -21.46,-76.25 -14.36,-17.87 -34.73,-26.85 -61.03,-26.85 -26.06,0 -46.35,8.98 -60.71,27.01 -14.44,17.95 -21.62,43.31 -21.62,76.09 z m -29.03,0 c 0,-40.66 9.75,-72.11 29.19,-94.43 19.43,-22.32 46.82,-33.48 82.17,-33.48 35.51,0 63.06,11.16 82.65,33.48 19.59,22.32 29.34,53.77 29.34,94.43 0,40.42 -9.75,71.72 -29.26,93.96 -19.51,22.24 -47.06,33.32 -82.73,33.32 -35.35,0 -62.74,-11.08 -82.17,-33.24 -19.44,-22.17 -29.19,-53.46 -29.19,-94.04 z m 273.54,121.2 v -243.02 h 27.23 v 42.61 c 6.95,-16.32 16.7,-28.49 29.11,-36.61 12.41,-8.03 27.71,-12.09 45.81,-12.09 h 3.2 v 29.5 h -3.67 c -24.19,0 -42.37,7.18 -54.47,21.46 -12.1,14.36 -18.18,35.74 -18.18,64.23 v 133.92 z m 160.22,-116.13 v 1.41 c 0,29.73 7.18,53.38 21.46,71.01 14.36,17.56 33.56,26.38 57.59,26.38 19.04,0 34.96,-5.15 47.76,-15.45 12.8,-10.22 20.61,-24.35 23.34,-42.14 h 28.09 c -3.04,24.66 -13.73,44.4 -32,59.23 -18.26,14.83 -41.28,22.24 -68.98,22.24 -33.09,0 -59,-11.16 -77.73,-33.56 -18.73,-22.39 -28.1,-53.45 -28.1,-93.26 0,-40.5 9.45,-72.11 28.25,-94.82 18.81,-22.71 44.95,-34.02 78.51,-34.02 32.55,0 57.99,10.85 76.17,32.54 18.18,21.77 27.32,52.13 27.32,91.15 v 9.29 z m 0.46,-22.48 152.18,0.24 c -1.24,-26.92 -8.5,-48 -21.85,-63.37 -13.26,-15.37 -30.98,-23.02 -53.07,-23.02 -22.24,0 -40.34,7.8 -54.31,23.33 -13.97,15.61 -21.62,36.52 -22.95,62.82 z m 392.86,-174.18 v 69.77 h 44.95 v 22.94 h -44.95 v 177.08 c 0,10.37 1.33,17.24 3.9,20.6 2.58,3.35 7.18,5.07 13.9,5.07 2.88,0 6.16,-0.31 9.83,-0.86 3.67,-0.54 9.37,-1.64 17.09,-3.35 l 0.23,22.47 c -6.86,1.8 -13.11,3.12 -18.73,3.91 -5.61,0.85 -10.92,1.24 -15.99,1.24 -13.97,0 -23.88,-3.51 -29.66,-10.61 -5.78,-7.1 -8.66,-19.9 -8.66,-38.47 v -177.08 h -33.17 v -22.94 h 33.17 v -69.77 z m 106.76,191.59 c 0,32.62 7.18,57.98 21.62,75.93 14.36,18.03 34.65,27 60.72,27 26.3,0 46.66,-8.89 61.03,-26.76 14.28,-17.8 21.46,-43.24 21.46,-76.17 0,-32.86 -7.18,-58.3 -21.46,-76.25 -14.37,-17.87 -34.73,-26.85 -61.03,-26.85 -26.07,0 -46.36,8.98 -60.72,27.01 -14.44,17.95 -21.62,43.31 -21.62,76.09 z m -29.03,0 c 0,-40.66 9.76,-72.11 29.19,-94.43 19.43,-22.32 46.82,-33.48 82.18,-33.48 35.51,0 63.05,11.16 82.64,33.48 19.59,22.32 29.35,53.77 29.35,94.43 0,40.42 -9.76,71.72 -29.27,93.96 -19.51,22.24 -47.06,33.32 -82.72,33.32 -35.36,0 -62.75,-11.08 -82.18,-33.24 -19.43,-22.17 -29.19,-53.46 -29.19,-94.04 z m 404.26,121.2 v -336.67 h 31.84 v 309.04 h 171.85 v 27.63 z m 240.21,-294.53 v -42.14 h 28.09 v 42.14 z m 0,294.53 v -243.02 h 28.09 v 243.02 z m 107.23,0 v -220.08 h -35.59 v -22.94 h 35.59 v -44.41 c 0,-18.26 4.6,-31.61 13.73,-39.96 9.13,-8.35 23.8,-12.56 43.94,-12.56 2.18,0 4.37,0.08 6.79,0.31 2.34,0.23 4.92,0.7 7.65,1.25 v 25.13 c -0.63,0 -1.49,-0.08 -2.73,-0.24 -6.09,-0.46 -10.38,-0.7 -12.8,-0.7 -10.46,0 -17.87,2.19 -22.09,6.56 -4.29,4.29 -6.4,12.02 -6.4,22.94 v 41.68 h 44.02 v 22.94 h -44.02 v 220.08 z m 127.44,-116.13 v 1.41 c 0,29.73 7.18,53.38 21.46,71.01 14.36,17.56 33.56,26.38 57.59,26.38 19.05,0 34.97,-5.15 47.77,-15.45 12.79,-10.22 20.6,-24.35 23.33,-42.14 h 28.09 c -3.04,24.66 -13.73,44.4 -31.99,59.23 -18.26,14.83 -41.29,22.24 -68.99,22.24 -33.09,0 -59,-11.16 -77.73,-33.56 -18.73,-22.39 -28.09,-53.45 -28.09,-93.26 0,-40.5 9.44,-72.11 28.25,-94.82 18.81,-22.71 44.95,-34.02 78.51,-34.02 32.54,0 57.98,10.85 76.16,32.54 18.19,21.77 27.32,52.13 27.32,91.15 v 9.29 z m 0.47,-22.48 152.18,0.24 c -1.25,-26.92 -8.51,-48 -21.85,-63.37 -13.27,-15.37 -30.99,-23.02 -53.07,-23.02 -22.25,0 -40.35,7.8 -54.32,23.33 -13.97,15.61 -21.62,36.52 -22.94,62.82 z"
   id="path27" />
  </g>
 <g
   id="g161">
   <g
   id="g157">
    <polygon
   class="fil0"
   points="2245.27,2472.95 5745.27,2472.95 5745.27,4900.37 2245.27,4900.37 "
   id="polygon139" />
    <g
   id="g155">
     <path
   class="fil1"
   d="m 4535.58,3387.06 c 0,39.27 -31.84,71 -71.07,71 -39.22,0 -71,-31.73 -71,-71 0,-39.16 31.78,-71 71,-71 39.23,0 71.07,31.84 71.07,71 z"
   id="path141" />
     <path
   class="fil2"
   d="m 3928.33,3787.63 356.75,0.56 c -2.88,-62.87 -19.94,-112.23 -51.19,-148.19 -31.28,-35.81 -72.77,-53.77 -124.55,-53.77 -52.11,0 -94.54,18.18 -127.14,54.53 -32.73,36.48 -50.69,85.45 -53.87,146.87 z m -1.11,52.93 v 3.31 c 0,69.52 16.8,125.05 50.4,166.26 33.56,41.21 78.5,61.87 134.97,61.87 44.57,0 81.92,-12.07 111.95,-36.15 29.96,-24.13 48.19,-57.01 54.59,-98.88 h 65.88 c -7.11,57.9 -32.12,104.28 -74.97,139 -42.86,34.87 -96.8,52.32 -161.75,52.32 -77.51,0 -138.21,-26.28 -182.12,-78.78 -43.89,-52.5 -65.88,-125.26 -65.88,-218.52 0,-95.03 22.03,-169.02 66.16,-222.29 44.13,-53.26 105.44,-79.82 184,-79.82 76.34,0 135.9,25.51 178.64,76.25 42.58,50.89 64.01,122.13 64.01,213.51 v 21.92 z"
   id="path143" />
     <path
   class="fil2"
   d="m 4425.94,4112.77 v -569.49 h 63.75 v 99.76 c 16.41,-38.33 39.16,-66.82 68.24,-85.77 29.15,-18.83 64.89,-28.42 107.43,-28.42 h 7.48 v 69.08 h -8.59 c -56.79,0 -99.33,16.8 -127.69,50.34 -28.43,33.61 -42.64,83.84 -42.64,150.55 v 313.95 z"
   id="path145" />
     <polygon
   class="fil2"
   points="4791.36,4112.8 4725.92,4112.8 4725.92,3543.31 4791.36,3543.31 "
   id="polygon147" />
     <polygon
   class="fil2"
   points="4973.48,4112.74 4908.04,4112.74 4908.04,3323.79 4973.48,3323.79 "
   id="polygon149" />
     <path
   class="fil2"
   d="m 4829.65,3387.06 c 0,39.27 -31.84,71 -71.02,71 -39.27,0 -71,-31.73 -71,-71 0,-39.16 31.73,-71 71,-71 39.18,0 71.02,31.84 71.02,71 z"
   id="path151" />
     <polygon
   class="fil2"
   points="3126.24,3245.04 3405.54,3951.26 3679.6,3245.04 3788.9,3245.04 3788.9,4112.77 3713.58,4112.77 3713.58,3347.99 3441.73,4112.77 3369.84,4112.77 3093.52,3347.99 3093.52,4112.77 3017.06,4112.77 3017.06,3245.04 "
   id="polygon153" />
    </g>
   </g>
   <path
   class="fil3"
   d="m 2830.54,5529.96 v -336.67 h 43.24 l 111.44,295.77 109.02,-295.77 h 43.47 v 336.67 h -29.97 v -293.52 l -108.16,293.52 h -28.56 l -110.04,-293.52 v 293.52 z m 392.86,-121.2 c 0,32.62 7.18,57.98 21.62,75.93 14.36,18.03 34.65,27 60.71,27 26.3,0 46.67,-8.89 61.03,-26.76 14.29,-17.8 21.46,-43.24 21.46,-76.17 0,-32.86 -7.17,-58.3 -21.46,-76.25 -14.36,-17.87 -34.73,-26.85 -61.03,-26.85 -26.06,0 -46.35,8.98 -60.71,27.01 -14.44,17.95 -21.62,43.31 -21.62,76.09 z m -29.03,0 c 0,-40.66 9.75,-72.11 29.19,-94.43 19.43,-22.32 46.82,-33.48 82.17,-33.48 35.51,0 63.06,11.16 82.65,33.48 19.59,22.32 29.34,53.77 29.34,94.43 0,40.42 -9.75,71.72 -29.26,93.96 -19.51,22.24 -47.06,33.32 -82.73,33.32 -35.35,0 -62.74,-11.08 -82.17,-33.24 -19.44,-22.17 -29.19,-53.46 -29.19,-94.04 z m 273.54,121.2 v -243.02 h 27.23 v 42.61 c 6.95,-16.32 16.7,-28.49 29.11,-36.61 12.41,-8.03 27.71,-12.09 45.81,-12.09 h 3.2 v 29.5 h -3.67 c -24.19,0 -42.37,7.18 -54.47,21.46 -12.1,14.36 -18.18,35.74 -18.18,64.23 v 133.92 z m 160.22,-116.13 v 1.41 c 0,29.73 7.18,53.38 21.46,71.01 14.36,17.56 33.56,26.38 57.59,26.38 19.04,0 34.96,-5.15 47.76,-15.45 12.8,-10.22 20.61,-24.35 23.34,-42.14 h 28.09 c -3.04,24.66 -13.73,44.4 -32,59.23 -18.26,14.83 -41.28,22.24 -68.98,22.24 -33.09,0 -59,-11.16 -77.73,-33.56 -18.73,-22.39 -28.1,-53.45 -28.1,-93.26 0,-40.5 9.45,-72.11 28.25,-94.82 18.81,-22.71 44.95,-34.02 78.51,-34.02 32.55,0 57.99,10.85 76.17,32.54 18.18,21.77 27.32,52.13 27.32,91.15 v 9.29 z m 0.46,-22.48 152.18,0.24 c -1.24,-26.92 -8.5,-48 -21.85,-63.37 -13.26,-15.37 -30.98,-23.02 -53.07,-23.02 -22.24,0 -40.34,7.8 -54.31,23.33 -13.97,15.61 -21.62,36.52 -22.95,62.82 z m 392.86,-174.18 v 69.77 h 44.95 v 22.94 h -44.95 v 177.08 c 0,10.37 1.33,17.24 3.9,20.6 2.58,3.35 7.18,5.07 13.9,5.07 2.88,0 6.16,-0.31 9.83,-0.86 3.67,-0.54 9.37,-1.64 17.09,-3.35 l 0.23,22.47 c -6.86,1.8 -13.11,3.12 -18.73,3.91 -5.61,0.85 -10.92,1.24 -15.99,1.24 -13.97,0 -23.88,-3.51 -29.66,-10.61 -5.78,-7.1 -8.66,-19.9 -8.66,-38.47 v -177.08 h -33.17 v -22.94 h 33.17 v -69.77 z m 106.76,191.59 c 0,32.62 7.18,57.98 21.62,75.93 14.36,18.03 34.65,27 60.72,27 26.3,0 46.66,-8.89 61.03,-26.76 14.28,-17.8 21.46,-43.24 21.46,-76.17 0,-32.86 -7.18,-58.3 -21.46,-76.25 -14.37,-17.87 -34.73,-26.85 -61.03,-26.85 -26.07,0 -46.36,8.98 -60.72,27.01 -14.44,17.95 -21.62,43.31 -21.62,76.09 z m -29.03,0 c 0,-40.66 9.76,-72.11 29.19,-94.43 19.43,-22.32 46.82,-33.48 82.18,-33.48 35.51,0 63.05,11.16 82.64,33.48 19.59,22.32 29.35,53.77 29.35,94.43 0,40.42 -9.76,71.72 -29.27,93.96 -19.51,22.24 -47.06,33.32 -82.72,33.32 -35.36,0 -62.75,-11.08 -82.18,-33.24 -19.43,-22.17 -29.19,-53.46 -29.19,-94.04 z m 404.26,121.2 v -336.67 h 31.84 v 309.04 h 171.85 v 27.63 z m 240.21,-294.53 v -42.14 h 28.09 v 42.14 z m 0,294.53 v -243.02 h 28.09 v 243.02 z m 107.23,0 v -220.08 h -35.59 v -22.94 h 35.59 v -44.41 c 0,-18.26 4.6,-31.61 13.73,-39.96 9.13,-8.35 23.8,-12.56 43.94,-12.56 2.18,0 4.37,0.08 6.79,0.31 2.34,0.23 4.92,0.7 7.65,1.25 v 25.13 c -0.63,0 -1.49,-0.08 -2.73,-0.24 -6.09,-0.46 -10.38,-0.7 -12.8,-0.7 -10.46,0 -17.87,2.19 -22.09,6.56 -4.29,4.29 -6.4,12.02 -6.4,22.94 v 41.68 h 44.02 v 22.94 h -44.02 v 220.08 z m 127.44,-116.13 v 1.41 c 0,29.73 7.18,53.38 21.46,71.01 14.36,17.56 33.56,26.38 57.59,26.38 19.05,0 34.97,-5.15 47.77,-15.45 12.79,-10.22 20.6,-24.35 23.33,-42.14 h 28.09 c -3.04,24.66 -13.73,44.4 -31.99,59.23 -18.26,14.83 -41.29,22.24 -68.99,22.24 -33.09,0 -59,-11.16 -77.73,-33.56 -18.73,-22.39 -28.09,-53.45 -28.09,-93.26 0,-40.5 9.44,-72.11 28.25,-94.82 18.81,-22.71 44.95,-34.02 78.51,-34.02 32.54,0 57.98,10.85 76.16,32.54 18.19,21.77 27.32,52.13 27.32,91.15 v 9.29 z m 0.47,-22.48 152.18,0.24 c -1.25,-26.92 -8.51,-48 -21.85,-63.37 -13.27,-15.37 -30.99,-23.02 -53.07,-23.02 -22.25,0 -40.35,7.8 -54.32,23.33 -13.97,15.61 -21.62,36.52 -22.94,62.82 z"
   id="path159" />
  </g></g>
</svg>
